<svg xmlns="http://www.w3.org/2000/svg" viewBox="0 0 32 32" width="32" height="32">
  <defs>
    <linearGradient id="favGrad" x1="0%" y1="0%" x2="100%" y2="100%">
      <stop offset="0%" stop-color="#165dff"/>
      <stop offset="100%" stop-color="#4f8bff"/>
    </linearGradient>
  </defs>
  <rect x="2" y="2" width="28" height="28" rx="7" fill="url(#favGrad)"/>
  <path d="M10 11c0-1 .75-1.75 1.75-1.75h8.5c1 0 1.75.75 1.75 1.75v1c0 1-.75 1.75-1.75 1.75h-8.5c-1 0-1.75-.75-1.75-1.75z" fill="rgba(255,255,255,0.95)"/>
  <path d="M10 16c0-1 .75-1.75 1.75-1.75h5.5c1 0 1.75.75 1.75 1.75v1c0 1-.75 1.75-1.75 1.75h-5.5c-1 0-1.75-.75-1.75-1.75z" fill="rgba(255,255,255,0.6)"/>
  <path d="M10 21c0-1 .75-1.75 1.75-1.75h3.5c1 0 1.75.75 1.75 1.75v1c0 1-.75 1.75-1.75 1.75h-3.5c-1 0-1.75-.75-1.75-1.75z" fill="rgba(255,255,255,0.35)"/>
</svg>
