<svg xmlns="http://www.w3.org/2000/svg" viewBox="0 0 64 64" width="64" height="64">
  <defs>
    <linearGradient id="logoGrad" x1="0%" y1="0%" x2="100%" y2="100%">
      <stop offset="0%" stop-color="#165dff"/>
      <stop offset="100%" stop-color="#4f8bff"/>
    </linearGradient>
    <linearGradient id="logoGradLight" x1="0%" y1="0%" x2="100%" y2="100%">
      <stop offset="0%" stop-color="#e8f0ff"/>
      <stop offset="100%" stop-color="#c8ddff"/>
    </linearGradient>
  </defs>
  <rect x="4" y="4" width="56" height="56" rx="14" fill="url(#logoGrad)"/>
  <path d="M20 22c0-2 1.5-3.5 3.5-3.5h17c2 0 3.5 1.5 3.5 3.5v2c0 2-1.5 3.5-3.5 3.5h-17c-2 0-3.5-1.5-3.5-3.5z" fill="rgba(255,255,255,0.95)"/>
  <path d="M20 32c0-2 1.5-3.5 3.5-3.5h11c2 0 3.5 1.5 3.5 3.5v2c0 2-1.5 3.5-3.5 3.5h-11c-2 0-3.5-1.5-3.5-3.5z" fill="rgba(255,255,255,0.6)"/>
  <path d="M20 42c0-2 1.5-3.5 3.5-3.5h7c2 0 3.5 1.5 3.5 3.5v2c0 2-1.5 3.5-3.5 3.5h-7c-2 0-3.5-1.5-3.5-3.5z" fill="rgba(255,255,255,0.35)"/>
</svg>
